<?xml version="1.0" encoding="UTF-8"?>
<svg version="1.1" xmlns="http://www.w3.org/2000/svg" width="1080" height="1080">
<path d="M0 0 C0.74185547 -0.00058411 1.48371094 -0.00116821 2.24804688 -0.00177002 C4.69416495 0.00101131 7.13905641 0.0321037 9.58496094 0.06347656 C11.28317601 0.07093882 12.9813997 0.07663183 14.67962646 0.08062744 C19.14489603 0.09588505 23.60964347 0.13516767 28.07470703 0.17944336 C32.63274065 0.22039349 37.19085881 0.23863789 41.74902344 0.25878906 C50.68935675 0.30166203 59.62930289 0.36991471 68.56933594 0.45410156 C70.63090333 4.47503005 72.1794653 8.10581765 73.19433594 12.51660156 C73.43410156 13.51820312 73.67386719 14.51980469 73.92089844 15.55175781 C75.57329785 25.49601695 75.72296359 35.58588343 75.81542969 45.64550781 C75.84841332 48.1643909 75.88162409 50.68327103 75.91503906 53.20214844 C75.96191617 57.08420479 76.00631946 60.96625335 76.04614258 64.84838867 C76.28533144 87.18175371 77.36987497 109.33009552 79.88256836 131.52786255 C80.95711198 141.40967311 81.251112 151.33874793 81.63183594 161.26660156 C82.35258308 182.8716509 82.35258308 182.8716509 84.50292969 204.36425781 C85.81783894 213.80260086 86.59286099 223.2798274 87.37426758 232.77514648 C87.62885691 235.85555672 87.89265893 238.93508119 88.15722656 242.01464844 C90.13358669 265.45617006 90.72563206 288.87679542 91.06933594 312.39160156 C91.13869811 317.12994576 91.21228032 321.86820026 91.28808594 326.60644531 C91.3084491 328.13736061 91.3084491 328.13736061 91.32922363 329.69920349 C91.43006836 335.98368271 91.64054438 342.25349155 91.91786957 348.53232288 C92.67870373 365.98608891 92.92671728 383.44020754 93.13183594 400.90722656 C93.14232342 401.77090127 93.1528109 402.63457598 93.16361618 403.52442265 C93.82985146 458.41283918 93.64330972 513.30580748 93.57193947 568.19707298 C93.56404762 574.28079582 93.55633353 580.36451886 93.54882812 586.44824219 C93.548 587.11836282 93.54717187 587.78848345 93.54631865 588.47891077 C93.53256722 599.71058045 93.52289579 610.94225044 93.51591778 622.17392659 C93.51101152 629.59969329 93.50128051 637.02543138 93.48748779 644.45118666 C93.47995704 649.05420216 93.47669974 653.65721398 93.47452164 658.26023483 C93.47267476 660.36309668 93.46912588 662.46595796 93.46358871 664.56881332 C93.43600298 675.39500953 93.56308284 686.1960291 94.01293945 697.01397705 C94.05179481 697.97231532 94.09065016 698.93065359 94.13068295 699.91803241 C94.34236852 704.50949351 94.71107839 708.92887301 95.56933594 713.45410156 C95.75260435 715.58548204 95.90567652 717.7195983 96.03417969 719.85498047 C96.14934937 721.7268956 96.14934937 721.7268956 96.2668457 723.6366272 C96.32547287 724.62511091 96.32547287 724.62511091 96.38528442 725.633564 C96.50860431 727.71044594 96.63597969 729.78704477 96.7644043 731.86361694 C97.08235291 737.01706162 97.3940191 742.17088143 97.70471191 747.32476807 C97.96799299 751.69031078 98.23422504 756.05565225 98.50466919 760.42075729 C98.63001535 762.46349444 98.75097589 764.50646168 98.87182617 766.54946899 C98.94860596 767.79110809 99.02538574 769.03274719 99.10449219 770.31201172 C99.17031494 771.40422028 99.2361377 772.49642883 99.30395508 773.62173462 C99.52958285 776.02982335 99.95574111 778.12803483 100.56933594 780.45410156 C100.79149843 783.29410585 100.97019762 786.11774752 101.10449219 788.96191406 C101.14623062 789.80110382 101.18796906 790.64029358 101.23097229 791.50491333 C101.62781135 799.90821369 101.80341499 808.31290531 101.95748901 816.72351074 C102.43513951 841.94416604 103.34058228 867.18874526 105.786026 892.30461121 C106.05025413 895.02081799 106.31078658 897.7373483 106.56933594 900.45410156 C106.70054085 901.83082031 106.70054085 901.83082031 106.83439636 903.23535156 C108.62218657 922.65020038 108.84881018 941.92259558 108.76495361 961.39941406 C108.75416422 964.54569984 108.75453645 967.69194243 108.75494194 970.83824348 C108.75455181 986.33242246 108.62419188 1001.82121721 108.18261719 1017.30957031 C108.13744209 1019.15582756 108.13744209 1019.15582756 108.09135437 1021.03938293 C107.89866328 1026.85710354 107.52518636 1031.95911584 105.56933594 1037.45410156 C105.33472656 1038.2365625 105.10011719 1039.01902344 104.85839844 1039.82519531 C102.76149559 1046.35026358 100.27532342 1053.32029703 95.56933594 1058.45410156 C94.90933594 1058.45410156 94.24933594 1058.45410156 93.56933594 1058.45410156 C93.30121094 1059.38222656 93.03308594 1060.31035156 92.75683594 1061.26660156 C91.65956349 1064.21191181 91.03576424 1065.60428033 88.56933594 1067.45410156 C87.90933594 1067.45410156 87.24933594 1067.45410156 86.56933594 1067.45410156 C86.56933594 1068.11410156 86.56933594 1068.77410156 86.56933594 1069.45410156 C84.95996094 1070.82128906 84.95996094 1070.82128906 82.81933594 1072.32910156 C79.79488004 1074.51461828 77.1625938 1076.76110301 74.56933594 1079.45410156 C71.31806821 1081.07973543 67.74395619 1080.58319116 64.17236328 1080.56762695 C63.30400345 1080.56777298 62.43564362 1080.56791901 61.54096985 1080.56806946 C58.66237922 1080.56737117 55.7838528 1080.55958266 52.90527344 1080.55175781 C50.91273026 1080.54989334 48.92018662 1080.54846957 46.92764282 1080.54747009 C41.676745 1080.54364725 36.42587472 1080.53381894 31.17498779 1080.52276611 C25.8194618 1080.512547 20.46393137 1080.5079714 15.10839844 1080.50292969 C4.59536548 1080.49219648 -5.917647 1080.47512283 -16.43066406 1080.45410156 C-16.43066406 1079.79410156 -16.43066406 1079.13410156 -16.43066406 1078.45410156 C-17.42066406 1078.12410156 -18.41066406 1077.79410156 -19.43066406 1077.45410156 C-19.43066406 1076.46410156 -19.43066406 1075.47410156 -19.43066406 1074.45410156 C-20.09066406 1074.45410156 -20.75066406 1074.45410156 -21.43066406 1074.45410156 C-21.77620293 1071.78851604 -22.10956671 1069.12268089 -22.43066406 1066.45410156 C-22.57375 1065.28041016 -22.57375 1065.28041016 -22.71972656 1064.08300781 C-24.55443857 1047.70165058 -24.55443857 1047.70165058 -22.43066406 1043.45410156 C-23.09066406 1043.12410156 -23.75066406 1042.79410156 -24.43066406 1042.45410156 C-24.24503906 1041.69097656 -24.05941406 1040.92785156 -23.86816406 1040.14160156 C-23.20247233 1037.36442781 -23.20247233 1037.36442781 -24.43066406 1034.45410156 C-24.54726005 1032.9573345 -24.60565365 1031.45535096 -24.61816406 1029.95410156 C-24.63234375 1029.18066406 -24.64652344 1028.40722656 -24.66113281 1027.61035156 C-24.43066406 1025.45410156 -24.43066406 1025.45410156 -22.43066406 1022.45410156 C-23.09066406 1022.12410156 -23.75066406 1021.79410156 -24.43066406 1021.45410156 C-24.24503906 1020.69097656 -24.05941406 1019.92785156 -23.86816406 1019.14160156 C-23.20247233 1016.36442781 -23.20247233 1016.36442781 -24.43066406 1013.45410156 C-24.26566406 1012.83535156 -24.10066406 1012.21660156 -23.93066406 1011.57910156 C-23.29760856 1008.88861569 -23.79260981 1007.13392942 -24.43066406 1004.45410156 C-25.55566406 998.82910156 -25.55566406 998.82910156 -24.43066406 995.45410156 C-24.73471084 993.78184427 -25.07694908 992.11656197 -25.43066406 990.45410156 C-25.70087467 987.85844206 -25.93108037 985.26164309 -26.14941406 982.66113281 C-26.31194207 980.41607867 -26.31194207 980.41607867 -27.43066406 978.45410156 C-27.26566406 977.89722656 -27.10066406 977.34035156 -26.93066406 976.76660156 C-26.2281575 973.5175087 -26.93123289 970.72815034 -27.43066406 967.45410156 C-27.43066406 965.12076823 -27.43066406 962.7874349 -27.43066406 960.45410156 C-27.76066406 960.12410156 -28.09066406 959.79410156 -28.43066406 959.45410156 C-28.43066406 957.45410156 -28.43066406 955.45410156 -28.43066406 953.45410156 C-28.58535156 952.72449219 -28.74003906 951.99488281 -28.89941406 951.24316406 C-29.57390798 947.70207099 -29.74937592 944.1712926 -29.93066406 940.57910156 C-30.19107507 935.47697472 -30.7013893 930.51648385 -31.43066406 925.45410156 C-31.4686965 924.05878646 -31.47668714 922.66167596 -31.43066406 921.26660156 C-31.43066406 918.26757228 -31.60121357 916.25349698 -32.43066406 913.45410156 C-32.43066406 910.45410156 -32.43066406 910.45410156 -31.86816406 907.57910156 C-31.26704652 904.60346277 -31.26704652 904.60346277 -31.90332031 902.29785156 C-32.61634671 898.45279072 -32.4972081 894.72858241 -32.43066406 890.82910156 C-32.25993562 885.06446459 -32.25993562 885.06446459 -33.43066406 879.45410156 C-33.26566406 878.83535156 -33.10066406 878.21660156 -32.93066406 877.57910156 C-32.27415183 875.44895467 -32.27415183 875.44895467 -32.86816406 873.26660156 C-33.51730376 870.02090308 -33.46104955 867.03278632 -33.36816406 863.73535156 C-33.43770831 861.1969866 -33.89237951 858.93537214 -34.43066406 856.45410156 C-34.82109324 854.26930265 -35.19532263 852.08156396 -35.55566406 849.89160156 C-35.74386719 848.7765625 -35.93207031 847.66152344 -36.12597656 846.51269531 C-36.40919682 843.66959968 -36.14543854 842.13734226 -35.43066406 839.45410156 C-35.73338368 838.11348613 -36.06904378 836.78004261 -36.43066406 835.45410156 C-36.49546866 832.92672218 -36.42980138 830.41873164 -36.36816406 827.89160156 C-36.33606442 825.48071032 -36.33606442 825.48071032 -36.99316406 823.32910156 C-37.43066406 821.45410156 -37.43066406 821.45410156 -36.43066406 818.45410156 C-36.74234546 817.11554129 -37.07836822 815.78255048 -37.43066406 814.45410156 C-37.49557137 811.95922685 -37.42985488 809.48388013 -37.36816406 806.98925781 C-37.35058021 804.47482102 -37.35058021 804.47482102 -37.93066406 802.15332031 C-38.60738331 798.50009376 -38.49717708 794.90222522 -38.43066406 791.20410156 C-38.38507096 788.61441344 -38.38333897 786.04515051 -38.43066406 783.45410156 C-38.76066406 783.12410156 -39.09066406 782.79410156 -39.43066406 782.45410156 C-39.66989952 780.25077255 -39.84651189 778.04052316 -39.99316406 775.82910156 C-40.07695313 774.61996094 -40.16074219 773.41082031 -40.24707031 772.16503906 C-40.37115346 769.65697552 -40.42932543 767.14491884 -40.42675781 764.63378906 C-40.43007076 761.93705118 -40.70152449 760.00609007 -41.43066406 757.45410156 C-41.43066406 756.46410156 -41.43066406 755.47410156 -41.43066406 754.45410156 C-41.50679286 753.07860436 -41.59235114 751.70361376 -41.68457031 750.32910156 C-41.73419922 749.54019531 -41.78382813 748.75128906 -41.83496094 747.93847656 C-41.94044575 746.28197425 -42.04982256 744.6257152 -42.16308594 742.96972656 C-42.21142578 742.18082031 -42.25976562 741.39191406 -42.30957031 740.57910156 C-42.38026733 739.50015625 -42.38026733 739.50015625 -42.45239258 738.39941406 C-42.43066406 736.45410156 -42.43066406 736.45410156 -41.43066406 733.45410156 C-41.59566406 732.79410156 -41.76066406 732.13410156 -41.93066406 731.45410156 C-42.43066406 729.45410156 -42.43066406 729.45410156 -41.43066406 726.45410156 C-41.73107131 724.78118663 -42.0674103 723.1145038 -42.43066406 721.45410156 C-42.5143049 719.89318951 -42.5527443 718.32933988 -42.55091858 716.76618958 C-42.55298058 715.39712212 -42.55298058 715.39712212 -42.55508423 714.00039673 C-42.55148895 713.01163544 -42.54789368 712.02287415 -42.54418945 711.00415039 C-42.54433548 709.95324722 -42.54448151 708.90234406 -42.54463196 707.81959534 C-42.54393599 704.35008674 -42.53615741 700.88063202 -42.52832031 697.41113281 C-42.52645475 695.00168385 -42.5250315 692.59223451 -42.52403259 690.18278503 C-42.52021615 683.84273225 -42.51039465 677.50270241 -42.49932861 671.16265869 C-42.48910394 664.70056467 -42.48453053 658.23846696 -42.47949219 651.77636719 C-42.4692432 639.64187122 -42.45345568 627.50739033 -42.43345737 615.37290668 C-42.4298222 612.87580115 -42.44123072 610.38099866 -42.46582031 607.88378906 C-42.47515915 606.36556126 -42.48426321 604.847332 -42.49316406 603.32910156 C-42.50154297 602.61367188 -42.50992187 601.89824219 -42.51855469 601.16113281 C-42.53961799 596.24916988 -42.29567901 591.40113632 -41.93286133 586.50244141 C-41.23464744 576.09050793 -41.28590182 565.6817014 -41.29785156 555.25097656 C-41.29717633 553.1535033 -41.29620448 551.05603012 -41.29495239 548.95855713 C-41.29348964 544.59850304 -41.2955864 540.23846963 -41.30029297 535.87841797 C-41.30603221 530.2899349 -41.30267599 524.70149942 -41.2967205 519.11301804 C-41.29311254 514.79796996 -41.29425383 510.48293324 -41.2968483 506.16788483 C-41.29751471 504.10578658 -41.29669911 502.04368731 -41.29436874 499.98159027 C-41.29183378 497.11269877 -41.29569287 494.24388564 -41.30126953 491.375 C-41.29823318 490.10179649 -41.29823318 490.10179649 -41.2951355 488.8028717 C-41.26995332 484.59229789 -41.26995332 484.59229789 -41.93860054 480.4553566 C-42.89681827 476.55822142 -42.41913638 472.33640533 -42.39550781 468.33300781 C-42.38620448 465.89420644 -42.37709741 463.45540432 -42.36816406 461.01660156 C-42.35978516 459.78876953 -42.35140625 458.5609375 -42.34277344 457.29589844 C-42.33955078 456.11189453 -42.33632813 454.92789062 -42.33300781 453.70800781 C-42.327771 452.62849854 -42.32253418 451.54898926 -42.31713867 450.43676758 C-42.34838917 447.47110428 -42.34838917 447.47110428 -42.99926758 444.68823242 C-43.43066406 442.45410156 -43.43066406 442.45410156 -42.43066406 440.45410156 C-42.67500476 438.91824578 -42.9216131 437.38273077 -43.17675781 435.84863281 C-43.63469616 431.52992195 -43.44483971 427.19341154 -43.36816406 422.85644531 C-43.4443147 418.71099514 -44.12706974 414.87087507 -44.99316406 410.82910156 C-45.60439137 407.51101045 -45.42868616 404.25345405 -45.39550781 400.88769531 C-45.38648438 399.56898438 -45.37746094 398.25027344 -45.36816406 396.89160156 C-45.35978516 396.21935547 -45.35140625 395.54710937 -45.34277344 394.85449219 C-45.32744848 391.76804529 -45.44646119 389.40671018 -46.43066406 386.45410156 C-46.26566406 385.83535156 -46.10066406 385.21660156 -45.93066406 384.57910156 C-45.31093865 381.94526858 -45.87892271 380.07487297 -46.43066406 377.45410156 C-46.10066406 376.79410156 -45.77066406 376.13410156 -45.43066406 375.45410156 C-45.59566406 374.81472656 -45.76066406 374.17535156 -45.93066406 373.51660156 C-46.43066406 371.45410156 -46.43066406 371.45410156 -45.43066406 368.45410156 C-45.76066406 367.79410156 -46.09066406 367.13410156 -46.43066406 366.45410156 C-48.77511271 369.33137945 -50.0876987 372.01275281 -51.43066406 375.45410156 C-52.4100133 377.13298597 -53.41410326 378.79748395 -54.43066406 380.45410156 C-55.22505905 381.9109505 -56.01645537 383.36943658 -56.80566406 384.82910156 C-58.4217668 387.7683579 -60.12294804 390.50849998 -62.11816406 393.20410156 C-64.14313473 396.05000629 -65.18265318 398.25607366 -66.43066406 401.45410156 C-70.96898252 409.44304232 -76.40621494 416.96512327 -81.53613281 424.57910156 C-83.00001635 426.80058256 -84.38205263 429.01015258 -85.68066406 431.32910156 C-86.25816406 432.36035156 -86.83566406 433.39160156 -87.43066406 434.45410156 C-88.09066406 434.45410156 -88.75066406 434.45410156 -89.43066406 434.45410156 C-89.67816406 435.14890625 -89.92566406 435.84371094 -90.18066406 436.55957031 C-91.62078262 439.89434485 -93.42141444 442.74164671 -95.43066406 445.76660156 C-96.13191406 446.83523438 -96.83316406 447.90386719 -97.55566406 449.00488281 C-98.17441406 449.813125 -98.79316406 450.62136719 -99.43066406 451.45410156 C-100.09066406 451.45410156 -100.75066406 451.45410156 -101.43066406 451.45410156 C-101.67945313 452.16566406 -101.92824219 452.87722656 -102.18457031 453.61035156 C-103.5679288 456.76735777 -105.29440389 459.204535 -107.36816406 461.95410156 C-109.42409285 464.69021613 -111.35763779 467.32661206 -113.05957031 470.29785156 C-113.51203125 471.00941406 -113.96449219 471.72097656 -114.43066406 472.45410156 C-115.09066406 472.45410156 -115.75066406 472.45410156 -116.43066406 472.45410156 C-116.77097656 473.25847656 -116.77097656 473.25847656 -117.11816406 474.07910156 C-118.84531466 477.2044217 -121.14794122 479.71483415 -123.43066406 482.45410156 C-123.78128906 483.15535156 -124.13191406 483.85660156 -124.49316406 484.57910156 C-125.72216985 487.03711313 -127.48303839 488.50647589 -129.43066406 490.45410156 C-131.01065206 492.56075223 -132.54706512 494.69189374 -134.06347656 496.84472656 C-134.51464844 497.37582031 -134.96582031 497.90691406 -135.43066406 498.45410156 C-136.09066406 498.45410156 -136.75066406 498.45410156 -137.43066406 498.45410156 C-137.76066406 499.77410156 -138.09066406 501.09410156 -138.43066406 502.45410156 C-139.09066406 502.45410156 -139.75066406 502.45410156 -140.43066406 502.45410156 C-140.43066406 503.11410156 -140.43066406 503.77410156 -140.43066406 504.45410156 C-141.09066406 504.45410156 -141.75066406 504.45410156 -142.43066406 504.45410156 C-142.80191406 505.28941406 -142.80191406 505.28941406 -143.18066406 506.14160156 C-145.79409358 510.97644618 -149.5771143 514.6005518 -153.43066406 518.45410156 C-155.00782452 520.31943454 -156.56330976 522.19872117 -158.09863281 524.09863281 C-158.53820312 524.5459375 -158.97777344 524.99324219 -159.43066406 525.45410156 C-160.09066406 525.45410156 -160.75066406 525.45410156 -161.43066406 525.45410156 C-161.77097656 526.28941406 -161.77097656 526.28941406 -162.11816406 527.14160156 C-165.36205134 532.85702201 -171.2802656 537.05268287 -176.12597656 541.36816406 C-178.37623613 543.35114056 -178.37623613 543.35114056 -180.11035156 545.22753906 C-181.43066406 546.45410156 -181.43066406 546.45410156 -183.43066406 546.45410156 C-183.76066406 547.44410156 -184.09066406 548.43410156 -184.43066406 549.45410156 C-186.51269531 551.36425781 -186.51269531 551.36425781 -189.24316406 553.51660156 C-190.22800781 554.30035156 -191.21285156 555.08410156 -192.22753906 555.89160156 C-193.00967773 556.51228516 -193.00967773 556.51228516 -193.80761719 557.14550781 C-195.48049905 558.4942814 -197.12239118 559.87384088 -198.75878906 561.26660156 C-199.56932739 561.95484009 -199.56932739 561.95484009 -200.39624023 562.65698242 C-201.93131291 563.96394156 -203.4642375 565.27342243 -204.99707031 566.58300781 C-207.43066406 568.45410156 -207.43066406 568.45410156 -209.43066406 568.45410156 C-209.76066406 569.44410156 -210.09066406 570.43410156 -210.43066406 571.45410156 C-212.22363281 572.92675781 -212.22363281 572.92675781 -214.61816406 574.51660156 C-217.77590941 576.64751173 -220.91571659 578.78861351 -223.99707031 581.02832031 C-224.9122644 581.69238892 -224.9122644 581.69238892 -225.84594727 582.36987305 C-227.0430417 583.24041477 -228.23828429 584.11351036 -229.43139648 584.98950195 C-232.96193161 587.54082369 -236.50178344 589.58522862 -240.43066406 591.45410156 C-242.10172162 592.36273911 -243.76840345 593.27946909 -245.43066406 594.20410156 C-247.43066406 595.2874349 -249.43066406 596.37076823 -251.43066406 597.45410156 C-252.47222656 598.03804687 -253.51378906 598.62199219 -254.58691406 599.22363281 C-276.29377333 610.86317534 -300.60045559 613.09698894 -324.43066406 607.45410156 C-330.77890726 605.50545938 -336.60979731 602.05165841 -341.43066406 597.45410156 C-341.43066406 596.79410156 -341.43066406 596.13410156 -341.43066406 595.45410156 C-342.09066406 595.45410156 -342.75066406 595.45410156 -343.43066406 595.45410156 C-345.08066406 592.15410156 -346.73066406 588.85410156 -348.43066406 585.45410156 C-348.10066406 585.12410156 -347.77066406 584.79410156 -347.43066406 584.45410156 C-347.19406877 581.27320931 -347.03440792 578.10000719 -346.91308594 574.91308594 C-346.64394531 569.66738281 -346.64394531 569.66738281 -344.43066406 567.45410156 C-343.98429628 565.90898231 -343.54487887 564.36156871 -343.13769531 562.80566406 C-341.56617163 557.57882838 -339.43020183 552.52926423 -337.43066406 547.45410156 C-336.77066406 547.45410156 -336.11066406 547.45410156 -335.43066406 547.45410156 C-335.17929687 546.93460938 -334.92792969 546.41511719 -334.66894531 545.87988281 C-323.49228568 523.98491237 -323.49228568 523.98491237 -318.43066406 521.45410156 C-318.10066406 520.46410156 -317.77066406 519.47410156 -317.43066406 518.45410156 C-315.78469896 516.76698733 -314.11829258 515.09953936 -312.43066406 513.45410156 C-312.10066406 512.79410156 -311.77066406 512.13410156 -311.43066406 511.45410156 C-310.77066406 511.45410156 -310.11066406 511.45410156 -309.43066406 511.45410156 C-309.12128906 510.83535156 -308.81191406 510.21660156 -308.49316406 509.57910156 C-307.80566406 508.20410156 -307.11816406 506.82910156 -306.43066406 505.45410156 C-305.77066406 505.45410156 -305.11066406 505.45410156 -304.43066406 505.45410156 C-304.09035156 504.64972656 -304.09035156 504.64972656 -303.74316406 503.82910156 C-301.97496317 500.62949995 -299.89396203 498.16372933 -297.43066406 495.45410156 C-296.77066406 495.45410156 -296.11066406 495.45410156 -295.43066406 495.45410156 C-295.16253906 494.81472656 -294.89441406 494.17535156 -294.61816406 493.51660156 C-293.43066406 491.45410156 -293.43066406 491.45410156 -290.43066406 490.45410156 C-290.02847656 489.58785156 -290.02847656 489.58785156 -289.61816406 488.70410156 C-287.85427266 485.36199154 -285.450249 483.71879026 -282.43066406 481.45410156 C-281.77066406 481.45410156 -281.11066406 481.45410156 -280.43066406 481.45410156 C-280.43066406 480.79410156 -280.43066406 480.13410156 -280.43066406 479.45410156 C-278.79561162 478.4032061 -277.12138224 477.41287674 -275.43066406 476.45410156 C-268.72537934 471.90151194 -262.55331459 466.95541548 -256.62207031 461.43457031 C-251.11113744 456.45410156 -251.11113744 456.45410156 -248.43066406 456.45410156 C-248.43066406 455.79410156 -248.43066406 455.13410156 -248.43066406 454.45410156 C-246.75097656 452.72753906 -246.75097656 452.72753906 -244.55566406 450.82910156 C-243.47671875 449.88164063 -243.47671875 449.88164063 -242.37597656 448.91503906 C-240.43066406 447.45410156 -240.43066406 447.45410156 -238.43066406 447.45410156 C-238.10066406 446.46410156 -237.77066406 445.47410156 -237.43066406 444.45410156 C-234.86816406 443.26660156 -234.86816406 443.26660156 -232.43066406 442.45410156 C-232.43066406 441.46410156 -232.43066406 440.47410156 -232.43066406 439.45410156 C-230.78066406 438.79410156 -229.13066406 438.13410156 -227.43066406 437.45410156 C-227.43066406 436.46410156 -227.43066406 435.47410156 -227.43066406 434.45410156 C-225.79731796 433.08015249 -224.124556 431.75267218 -222.43066406 430.45410156 C-214.58999218 421.87154792 -207.86988977 412.11294013 -201.43066406 402.45410156 C-200.77066406 402.45410156 -200.11066406 402.45410156 -199.43066406 402.45410156 C-199.34816406 401.93847656 -199.26566406 401.42285156 -199.18066406 400.89160156 C-198.10926181 397.40954424 -196.29542802 394.58209271 -194.43066406 391.45410156 C-193.77066406 391.45410156 -193.11066406 391.45410156 -192.43066406 391.45410156 C-192.22441406 390.79410156 -192.01816406 390.13410156 -191.80566406 389.45410156 C-190.23006073 386.01642157 -188.18436859 383.34998316 -185.88378906 380.36816406 C-183.5811069 377.33506121 -181.78666347 374.17873941 -180.11035156 370.76660156 C-178.26735823 367.13204726 -176.27980658 363.60731771 -174.24316406 360.07910156 C-173.69112305 359.11810547 -173.69112305 359.11810547 -173.12792969 358.13769531 C-172.23033095 356.57564037 -171.33070846 355.01474862 -170.43066406 353.45410156 C-169.77066406 353.45410156 -169.11066406 353.45410156 -168.43066406 353.45410156 C-168.33785156 352.77605469 -168.24503906 352.09800781 -168.14941406 351.39941406 C-167.25872963 347.74954417 -165.65818811 344.6360409 -163.93066406 341.32910156 C-160.80015802 335.21093712 -157.78757492 329.05078656 -154.86816406 322.82910156 C-151.70677646 316.0978591 -148.44582037 309.43409588 -145.03613281 302.82519531 C-143.36746673 299.32140254 -141.93796998 295.77371914 -140.51733398 292.16430664 C-138.61636463 287.42320109 -136.54520355 282.75631485 -134.49316406 278.07910156 C-131.3697689 270.9382794 -128.2777002 263.7945296 -125.36816406 256.56347656 C-124.43066406 254.45410156 -124.43066406 254.45410156 -122.43066406 251.45410156 C-122.04566515 249.79860625 -121.70273272 248.13185826 -121.43066406 246.45410156 C-120.77066406 246.45410156 -120.11066406 246.45410156 -119.43066406 246.45410156 C-119.36878906 245.54660156 -119.30691406 244.63910156 -119.24316406 243.70410156 C-118.30069646 236.94051056 -115.19312956 230.0977998 -111.43066406 224.45410156 C-110.92868191 222.92608995 -110.47467753 221.38191619 -110.05566406 219.82910156 C-108.26772495 213.62549464 -105.61597457 207.96695985 -102.86816406 202.14160156 C-101.19126404 197.83998846 -100.17641857 193.52961761 -99.17675781 189.02832031 C-98.43066406 186.45410156 -98.43066406 186.45410156 -96.43066406 184.45410156 C-95.74593011 182.12600614 -95.08213255 179.79172379 -94.43066406 177.45410156 C-93.95628906 176.40222656 -93.48191406 175.35035156 -92.99316406 174.26660156 C-91.56165377 171.0886487 -90.7775701 167.91001029 -89.99316406 164.51660156 C-88.94836615 160.10219362 -87.58439549 156.54579022 -85.40722656 152.59863281 C-83.7356654 148.9278845 -82.99651327 145.01838528 -82.14160156 141.09082031 C-81.43066406 138.45410156 -81.43066406 138.45410156 -79.43066406 135.45410156 C-78.89824848 133.57252819 -78.42537201 131.67368861 -77.99316406 129.76660156 C-77.12103811 126.0965893 -76.19629401 122.58620246 -74.80566406 119.07910156 C-73.56668731 115.8127083 -72.86229933 112.90718374 -72.43066406 109.45410156 C-71.77066406 109.45410156 -71.11066406 109.45410156 -70.43066406 109.45410156 C-70.32753906 108.38160156 -70.22441406 107.30910156 -70.11816406 106.20410156 C-68.2444448 91.2678823 -68.2444448 91.2678823 -64.43066406 87.45410156 C-64.32753906 86.48472656 -64.22441406 85.51535156 -64.11816406 84.51660156 C-63.59534975 79.96336418 -61.64249461 76.18293476 -59.68457031 72.08300781 C-58.71577547 70.0518585 -57.83523625 67.97847612 -56.99316406 65.89160156 C-55.237243 62.02857522 -53.14031258 58.50591863 -50.91894531 54.89550781 C-49.61349617 52.754023 -48.38605484 50.59019823 -47.18066406 48.39160156 C-45.43066406 45.45410156 -45.43066406 45.45410156 -43.43066406 44.45410156 C-43.14191406 43.64972656 -42.85316406 42.84535156 -42.55566406 42.01660156 C-41.21330439 38.95900453 -40.31052106 38.84758075 -37.43066406 37.45410156 C-37.28628906 36.86242188 -37.14191406 36.27074219 -36.99316406 35.66113281 C-36.31323017 32.99333664 -35.15021717 31.39189785 -33.49316406 29.20410156 C-32.96851563 28.49769531 -32.44386719 27.79128906 -31.90332031 27.06347656 C-31.17435547 26.26683594 -31.17435547 26.26683594 -30.43066406 25.45410156 C-29.77066406 25.45410156 -29.11066406 25.45410156 -28.43066406 25.45410156 C-28.10066406 24.46410156 -27.77066406 23.47410156 -27.43066406 22.45410156 C-26.77066406 22.45410156 -26.11066406 22.45410156 -25.43066406 22.45410156 C-25.30691406 21.85597656 -25.18316406 21.25785156 -25.05566406 20.64160156 C-24.43066406 18.45410156 -24.43066406 18.45410156 -22.43066406 15.45410156 C-21.77066406 15.45410156 -21.11066406 15.45410156 -20.43066406 15.45410156 C-20.10066406 14.46410156 -19.77066406 13.47410156 -19.43066406 12.45410156 C-17.49316406 10.26660156 -17.49316406 10.26660156 -15.43066406 8.45410156 C-14.77066406 8.45410156 -14.11066406 8.45410156 -13.43066406 8.45410156 C-13.18316406 7.87660156 -12.93566406 7.29910156 -12.68066406 6.70410156 C-9.48276703 0.94788691 -6.36952033 -0.13155826 0 0 Z " fill="#000000" transform="translate(643.4306640625,-0.4541015625)"/>
</svg>
